<?xml version="1.0" standalone="no"?>
<!DOCTYPE svg PUBLIC "-//W3C//DTD SVG 20010904//EN"
 "http://www.w3.org/TR/2001/REC-SVG-20010904/DTD/svg10.dtd">
<svg version="1.0" xmlns="http://www.w3.org/2000/svg"
 width="840.000000pt" height="509.000000pt" viewBox="0 0 840.000000 509.000000"
 preserveAspectRatio="xMidYMid meet">

<g transform="translate(0.000000,509.000000) scale(0.100000,-0.100000)"
fill="#000000" stroke="none">
<path d="M2799 4654 c-159 -48 -275 -185 -299 -349 -13 -97 -13 -3447 0 -3535
20 -123 103 -245 209 -305 101 -58 28 -55 1491 -55 1456 0 1392 -2 1488 52 51
29 129 105 158 154 62 105 58 -1 61 1564 l4 1424 -533 533 -533 533 -1000 -1
c-838 0 -1008 -3 -1046 -15z m2268 -816 c230 -230 413 -421 413 -430 0 -17
-26 -18 -425 -18 l-425 0 0 430 c0 337 3 430 12 430 7 0 199 -186 425 -412z
m-447 -886 c0 -9 -94 -490 -210 -1067 -115 -577 -210 -1051 -210 -1052 0 -2
-94 -3 -210 -3 -194 0 -210 1 -210 18 0 9 95 490 210 1067 116 577 210 1051
210 1052 0 2 95 3 210 3 194 0 210 -1 210 -18z m-866 -439 c-9 -16 -105 -160
-212 -320 l-195 -293 195 -292 c107 -161 203 -305 212 -320 l18 -28 -213 0
-214 1 -213 319 -212 320 212 320 213 319 214 1 213 0 -18 -27z m1514 -293
l212 -320 -212 -320 -213 -319 -214 -1 -213 0 18 28 c9 15 105 159 212 320
l195 292 -195 293 c-107 160 -203 304 -212 320 l-18 27 213 0 214 -1 213 -319z"/>
</g>
</svg>
